/* XPM */
static char *framebackPixmap[] = {
/* width height ncolors chars_per_pixel */
"20 12 4 1",
/* colors */
"` c #8A8A8A s fillcolor",
"a c #999999 s background",
"b c #333333 s darkShadow",
"c c #DDDDDD s lightShadow",
/* pixels */

"aaabbbaaaaaaaabbaaaa",
"aaab``aaaaaaabbcaaaa",
"aaab``aaaaabb``caaaa",
"aaab``aaaabb```caaaa",
"aaab``aabb`````caaaa",
"aaab``abb``````caaaa",
"aaab``b````````caaaa",
"aaab``aa```````caaaa",
"aaab``aaaa`````caaaa",
"aaab``aaaaa````caaaa",
"aaab``aaaaaaa``caaaa",
"aaabccaaaaaaaaacaaaa",
};

