/* XPM */
static char *ann-orig-loop-nest[] = {
/* width height ncolors chars_per_pixel */
"60 55 2 1",
/* colors */
"` c #FF0000",
"a c #DFDF8F",
/* pixels */
"aaaaaaaaaaaaaaaaaaaaaaaaaaaaaaaaaaaaaaaaaaaaaaaaaaaaaaaaaaaa",
"aaaaaaaaaaaaaaaaaaaaaaaaaaaaaaaaaaaaaaaaaaaaaaaaaaaaaaaaaaaa",
"aaaaaaaaaaaaaaaaaaaaaaaaaaaaaaaaaaaaaaaaaaaaaaaaaaaaaaaaaaaa",
"aaaaaaaaaaa```aaaaaaaaaaa``aaaaaaaaa``aaaaaaaaaaaaaaaaaaaaaa",
"aaaaaaaaa``aaa``aaaaaaaaa``aaaaaaaaa``aaaaaaaaaaaaaaaa```aaa",
"aaaaaaaaa``aaa``aaaaaaaaa`aaaaaaaaaa`aaaaaaaaaaaaaaaaaa``aaa",
"aaaaaaaa``aaaaa``a```a`````aa`````a```a```a``aaaa```aaa``aaa",
"aaaaaaaa``aaaaa``aa`````a``a``aa```a``aa``aa``aa``a``aa``aaa",
"aaaaaaaa``aaaaa``aa``aaaa``a``aa``aa``aa``aa``aa``a``aa``aaa",
"aaaaaaaa``aaaaa``aa``aaaa``a``aa``aa``aa``aa``aaa````aa``aaa",
"aaaaaaaa``aaaaa``aa``aaaa``aa````aaa``aa``aa``aa``a``aa``aaa",
"aaaaaaaaa``aaa``aaa``aaaa``aa`aaaaaa``aa``aa``a``aa``aa``aaa",
"aaaaaaaaa``aaa``aa````aa``````````a```````````````````````aa",
"aaaaaaaaaa`````aaaaaaaaaaaaa```````aaaaaaaaaaaaaaaaaaaaaaaaa",
"aaaaaaaaaaaaaaaaaaaaaaaaaaaa``aaa``aaaaaaaaaaaaaaaaaaaaaaaaa",
"aaaaaaaaaaaaaaaaaaaaaaaaaaaaa`````aaaaaaaaaaaaaaaaaaaaaaaaaa",
"aaaaaaaaaaaaaaaaaaaaaaaaaaaaaaaaaaaaaaaaaaaaaaaaaaaaaaaaaaaa",
"aaaaaaaaaaaaaaaaaaaaaaaaaaaaaaaaaaaaaaaaaaaaaaaaaaaaaaaaaaaa",
"aaaaaaaaaaaaaaaaa`````aaaaaaaaaaaaaaaaaaaaaaaaaaaaaaaaaaaaaa",
"aaaaaaaaaaaaaaaaaaa``aaaaaaaaaaaaaaaaaaaaaaaaaaaaaaaaaaaaaaa",
"aaaaaaaaaaaaaaaaaaa``aaaaaaa```aaaa```aa``````aaaaaaaaaaaaaa",
"aaaaaaaaaaaaaaaaaaa``aaaaaa``a``aa``a``aa```a``aaaaaaaaaaaaa",
"aaaaaaaaaaaaaaaaaaa``aaaaa``aaa````aaa``a``aa``aaaaaaaaaaaaa",
"aaaaaaaaaaaaaaaaaaa``aaaaa``aaa````aaa``a``aa``aaaaaaaaaaaaa",
"aaaaaaaaaaaaaaaaaaa``aaaa```aaa````aaa``a``aa``aaaaaaaaaaaaa",
"aaaaaaaaaaaaaaaaaaa``aaa`````a``````a```a``aa``aaaaaaaaaaaaa",
"aaaaaaaaaaaaaaaaa`````````a`````aa`````aa`````aaaaaaaaaaaaaa",
"aaaaaaaaaaaaaaaaaaaaaaaaaaaaaaaaaaaaaaaaa``aaaaaaaaaaaaaaaaa",
"aaaaaaaaaaaaaaaaaaaaaaaaaaaaaaaaaaaaaaaaa``aaaaaaaaaaaaaaaaa",
"aaaaaaaaaaaaaaaaaaaaaaaaaaaaaaaaaaaaaaaa````aaaaaaaaaaaaaaaa",
"aaaaaaaaaaaaaaaaaaaaaaaaaaaaaaaaaaaaaaaaaaaaaaaaaaaaaaaaaaaa",
"aaaaaaaaaaaaaaaaaaaaaaaaaaaaaaaaaaaaaaaaaaaaaaaaaaaaaaaaaaaa",
"aaaaaaaaaaaaaaaa````aaa```aaaaaaaaaaaaaa`aaaaaaaaaaaaaaaaaaa",
"aaaaaaaaaaaaaaaaa````aaa`aaaaaaaaaaaaaaa`aaaaaaaaaaaaaaaaaaa",
"aaaaaaaaaaaaaaaaa`a``aaa`aaa```aaa````a```aa````aaaaaaaaaaaa",
"aaaaaaaaaaaaaaaaa`a```aa`aa`aa`aa``aa`a``aa``aa`aaaaaaaaaaaa",
"aaaaaaaaaaaaaaaaa`aa```a`a``aa``a```aaa``aa```aaaaaaaaaaaaaa",
"aaaaaaaaaaaaaaaaa`aaa````a``````a````aa``aa````aaaaaaaaaaaaa",
"aaaaaaaaaaaaaaaaa`aaaa```a```aaaaa````a``aaa````aaaaaaaaaaaa",
"aaaaaaaaaaaaaaaaa`aaaa```a```aa`a`aa``a``aa`aa``aaaaaaaaaaaa",
"aaaaaaaaaaaaaaaa````aaa``aa````aa````aa```a````aaaaaaaaaaaaa",
"aaaaaaaaaaaaaaaaaaaaaaaa`aaaaaaaaaaaaaaaaaaaaaaaaaaaaaaaaaaa",
"aaaaaaaaaaaaaaaaaaaaaaaaaaaaaaaaaaaaaaaaaaaaaaaaaaaaaaaaaaaa",
"aaaaaaaaaaaaaaaaaaaaaaaaaaaaaaaaaaaaaaaaaaaaaaaaaaaaaaaaaaaa",
"aaaaaaaaaaaaaaaaaaaaaaaaaaaaaaaaaaaaaaaaaaaaaaaaaaaaaaaaaaaa",
"aaaaaaaaaaaaaaaaaaaaaaaaaaaaaaaaaaaaaaaaaaaaaaaaaaaaaaaaaaaa",
"aaaaaaaaaaaaaaaaaaaaaaaaaaaaaaaaaaaaaaaaaaaaaaaaaaaaaaaaaaaa",
"aaaaaaaaaaaaaaaaaaaaaaaaaaaaaaaaaaaaaaaaaaaaaaaaaaaaaaaaaaaa",
"aaaaaaaaaaaaaaaaaaaaaaaaaaaaaaaaaaaaaaaaaaaaaaaaaaaaaaaaaaaa",
"aaaaaaaaaaaaaaaaaaaaaaaaaaaaaaaaaaaaaaaaaaaaaaaaaaaaaaaaaaaa",
"aaaaaaaaaaaaaaaaaaaaaaaaaaaaaaaaaaaaaaaaaaaaaaaaaaaaaaaaaaaa",
"aaaaaaaaaaaaaaaaaaaaaaaaaaaaaaaaaaaaaaaaaaaaaaaaaaaaaaaaaaaa",
"aaaaaaaaaaaaaaaaaaaaaaaaaaaaaaaaaaaaaaaaaaaaaaaaaaaaaaaaaaaa",
"aaaaaaaaaaaaaaaaaaaaaaaaaaaaaaaaaaaaaaaaaaaaaaaaaaaaaaaaaaaa",
"aaaaaaaaaaaaaaaaaaaaaaaaaaaaaaaaaaaaaaaaaaaaaaaaaaaaaaaaaaaa"
};
