/* XPM */
static char *ann-func[] = {
/* width height ncolors chars_per_pixel */
"60 49 2 1",
/* colors */
"` c #FF0000",
"a c #DFDF8F",
/* pixels */
"aaaaaaaaaaaaaaaaaaaaaaaaaaaaaaaaaaaaaaaaaaaaaaaaaaaaaaaaaaaa",
"aaaaaaaaaaaaaaaaaaaaaaaaaaaaaaaaaaaaaaaaaaaaaaaaaaaaaaaaaaaa",
"aaaaaaaaaaaaaaaaaaaaaaaaaaaaaaaaaaaaaaaaaaaaaaaaaaaaaaaaaaaa",
"aaaaaaaaaaaaaaaaaaaaaaaaaaaaaaaaaaaaaaaaaaaaaaaaaaaaaaaaaaaa",
"aaaaaaaaaaaaaaaaaaaaaaaaaaaaaaaaaaaaaaaaaaaaaaaaaaaaaaaaaaaa",
"aaaaaaaaaaaaaaaaaaaaaaaaaaaaaaaaaaaaaaaaaaaaaaaaaaaaaaaaaaaa",
"aaaaaaaaaaaaaaaaaaaaaaaaaaaaaaaaaaaaaaaaaaaaaaaaaaaaaaaaaaaa",
"aaaaaaaaaaaaaaaaaaaaaaaaaaaaaaaaaaaaaaaaaaaaaaaaaaaaaaaaaaaa",
"aaaaaaaaaaaaaaaaaaaaaaaaaaaaaaaaaaaaaaaaaaaaaaaaaaaaaaaaaaaa",
"aaaaaaaaaaaaaaaaaaaaaaaaaaaaaaaaaaaaaaaaaaaaaaaaaaaaaaaaaaaa",
"aaaaaaaaaaaaaaaaaaaaaaaaaaaaaaaaaaaaaaaaa``aaaaaaaaaaaaaaaaa",
"aaaaa````````aaaaaaaaaaaaaaaaaaaaaaaaa`aa``aaaaaaaaaaaaaaaaa",
"aaaaaaa``aa``aaaaaaaaaaaaaaaaaaaaaaaaa`aa`aaaaaaaaaaaaaaaaaa",
"aaaaaaa``aa`aa```a```a```a``aaaa```aa``````aaa```aa```a``aaa",
"aaaaaaa``a``aaa``aa``aa``aa``aa``a``a``aa``aa``a``aa``aa``aa",
"aaaaaaa`````aaa``aa``aa``aa``a``aa``a``aa``a``aaa``a``aa``aa",
"aaaaaaa``aa`aaa``aa``aa``aa``a``aaaaa``aa``a``aaa``a``aa``aa",
"aaaaaaa``aa`aaa``aa``aa``aa``a``aaaaa``aa``a``aaa``a``aa``aa",
"aaaaaaa``aaaaaa``aa``aa``aa``a```aa`a``aa``a```a```a``aa``aa",
"aaaaa`````aaaaa```````````````a`````a```````a`````a````````a",
"aaaaaaaaaaaaaaaaaaaaaaaaaaaaaaaaaaaaaaaaaaaaaaaaaaaaaaaaaaaa",
"aaaaaaaaaaaaaaaaaaaaaaaaaaaaaaaaaaaaaaaaaaaaaaaaaaaaaaaaaaaa",
"aaaaaaaaaaaaaaaaaaaaaaaaaaaaaaaaaaaaaaaaaaaaaaaaaaaaaaaaaaaa",
"aaaaaaaaaaaaaaaaaaaaaaaaaaaaaaaaaaaaaaaaaaaaaaaaaaaaaaaaaaaa",
"aaaaaaaaaaaaaaaaaaaaaaaaaaaaaaaaaaaaaaaaaaaaaaaaaaaaaaaaaaaa",
"aaaaaaaaaaaa````aaa```aaaaaaaaaaaaaaaaaaaaaaaaaaaaaaaaaaaaaa",
"aaaaaaaaaaaaa````aaa`aaaaaaaaaaaaaaaaaaaaaaaaaaaaaaaaaaaaaaa",
"aaaaaaaaaaaaa`a``aaa`aaa```aa```a``a```aaaa```aa````aaaaaaaa",
"aaaaaaaaaaaaa`a```aa`aa``a``aa```a```a``aa`aa`a``aa`aaaaaaaa",
"aaaaaaaaaaaaa`aa```a`aa``a``aa``aa``aa``a``aa`````aaaaaaaaaa",
"aaaaaaaaaaaaa`aaa````aaa````aa``aa``aa``a``````````aaaaaaaaa",
"aaaaaaaaaaaaa`aaaa```aa``a``aa``aa``aa``a```aaaa````aaaaaaaa",
"aaaaaaaaaaaaa`aaaa```a``aa``aa``aa``aa``a```aa``aa``aaaaaaaa",
"aaaaaaaaaaaa````aaa``a```````````````````a````a````aaaaaaaaa",
"aaaaaaaaaaaaaaaaaaaa`aaaaaaaaaaaaaaaaaaaaaaaaaaaaaaaaaaaaaaa",
"aaaaaaaaaaaaaaaaaaaaaaaaaaaaaaaaaaaaaaaaaaaaaaaaaaaaaaaaaaaa",
"aaaaaaaaaaaaaaaaaaaaaaaaaaaaaaaaaaaaaaaaaaaaaaaaaaaaaaaaaaaa",
"aaaaaaaaaaaaaaaaaaaaaaaaaaaaaaaaaaaaaaaaaaaaaaaaaaaaaaaaaaaa",
"aaaaaaaaaaaaaaaaaaaaaaaaaaaaaaaaaaaaaaaaaaaaaaaaaaaaaaaaaaaa",
"aaaaaaaaaaaaaaaaaaaaaaaaaaaaaaaaaaaaaaaaaaaaaaaaaaaaaaaaaaaa",
"aaaaaaaaaaaaaaaaaaaaaaaaaaaaaaaaaaaaaaaaaaaaaaaaaaaaaaaaaaaa",
"aaaaaaaaaaaaaaaaaaaaaaaaaaaaaaaaaaaaaaaaaaaaaaaaaaaaaaaaaaaa",
"aaaaaaaaaaaaaaaaaaaaaaaaaaaaaaaaaaaaaaaaaaaaaaaaaaaaaaaaaaaa",
"aaaaaaaaaaaaaaaaaaaaaaaaaaaaaaaaaaaaaaaaaaaaaaaaaaaaaaaaaaaa",
"aaaaaaaaaaaaaaaaaaaaaaaaaaaaaaaaaaaaaaaaaaaaaaaaaaaaaaaaaaaa",
"aaaaaaaaaaaaaaaaaaaaaaaaaaaaaaaaaaaaaaaaaaaaaaaaaaaaaaaaaaaa",
"aaaaaaaaaaaaaaaaaaaaaaaaaaaaaaaaaaaaaaaaaaaaaaaaaaaaaaaaaaaa",
"aaaaaaaaaaaaaaaaaaaaaaaaaaaaaaaaaaaaaaaaaaaaaaaaaaaaaaaaaaaa",
"aaaaaaaaaaaaaaaaaaaaaaaaaaaaaaaaaaaaaaaaaaaaaaaaaaaaaaaaaaaa"
};
