/* XPM */
static char *ann-hyper[] = {
/* width height ncolors chars_per_pixel */
"64 49 3 1",
/* colors */
"` c #000000",
"a c #FFFFFF",
"b c #DFDF8F",
/* pixels */
"abbbbbbbbbbbbbbbbbbbbbbbbbbbbbbbbbbbbbbbbbbbbbbbbbbbbbbbbbbbbaaa",
"abbbbbbbbbbbbbbbbbbbbbbbbbbbbbbbbbbbbbbbbbbbbbbbbbbbbbbbbbbbbaaa",
"abbbbbbbbbbbbbbbbbbbbbbbbbbbbbbbbbbbbbbbbbbbbbbbbbbbbbbbbbbbbaaa",
"abbbbbbbbbbbbbbbbbbbbbbbbbbbbbbbbbbbbbbbbbbbbbbbbbbbbbbbbbbbbaaa",
"abbbbbbbbbbbbbbbbbbbbbbbbbbbbbbbbbbbbbbbbbbbbbbbbbbbbbbbbbbbbaaa",
"abbbbbbbbbbbbbbbbbbbbbbbbbbbbbbbbbbbbbbbbbbbbbbbbbbbbbbbbbbbbaaa",
"abbbbbbbbbbbbbbbbbbbbbbbbbbbbbbbbbbbbbbbbbbbbbbbbbbbbbbbbbbbbaaa",
"abbbbb``````bbbbbbbbbbbbbbbbbbbbbbbbbbbbbbbbbbbbbbbbbbbbbbbbbaaa",
"abbbb``bbb``bbbbbbbbbbbbbbbbbbbbbbbbbbbb`bbbbbbbbbbbb`bbbbbbbaaa",
"abbbb`bbbb``bbbbbbbbbbbbbbbbbbbbbbbbbbbb`bbbbbbbbbbbb`bbbbbbbaaa",
"abbbb`bb`b``bb```b``bb```b``bbbbb````bbb`bbbbb````bbb`bbbbb``aaa",
"abbbb`bbbb``bbb`````bbb`````bbbb`bbb`b`````b``bbb`b`````bb`b`aaa",
"abbbbbb`b```bbb``b``bbb``b``bbb``bbb`bb``bbb``bbb`bb``bbb`b``aaa",
"abbbbb`````bbb``bb`bbb``bb`bbbb`bbb``bb`bbbb`bbb`bbb`bbbb```baaa",
"abbbb`bbb``bbb``bb`bbb``bb`bbbb`bbb`bbb`bbbb`bbb`bbb`bbbb`bbbaaa",
"abbb``bbb``bbb``bb`b`b``bb`b`bb`bb``bbb````b`b`````b````b`bb``aa",
"ab``bbbbb```bb`bb```bb`bb```bbb````bbbb``bbb``bb`bbb``bbb```baaa",
"abbbbbbbb`bbbbbbbbbbbbbbbbbbbbbbbbbbbbbbbbbbbbbbbbbbbbbbbbbbbaaa",
"abbbbbbbbbbbbbbbbbbbbbbbbbbbbbbbbbbbbbbbbbbbbbbbbbbbbbbbbbbbbaaa",
"abbbbbbbbbbbbbbbbbbbbbbbbbbbbbbbbbbbbbbbbbbbbbbbbbbbbbbbbbbbbaaa",
"abbbbbbbbbbbbbbbbbbbbbbbbbbbbb`bbbbbbbbbbbbbbbbbbbbbbbbbbbbbbaaa",
"abbbbbbbbbbbbbbbbbbbbbbbbbbbbb`bbbbbbbbbbbbbbbbbbbbbbbbbbbbbbaaa",
"abbbbbbbbbbbbbbbbbbbbbbbbb``bb`bbbb`bbbbbbbbbbbbbbbbbbbbbbbbbaaa",
"abbbbbbbbbbbbbbbbbbbbbbbbbb``b``````bbbbbbbbbbbbbbbbbbbbbbbbbaaa",
"abbbbbbbbbbbbbbbbbbbbbbb`b``b``b`bbbbbbbbbbbbbbbbbbbbbbbbbbbbaaa",
"abbbbbbbbbbbbbbbbbbbbbbb``bbb`b``bbbbbbbbbbbbbbbbbbbbbbbbbbbbaaa",
"abbbbbbbbbbbbbbbbbbbbbb``bbbbbb`bbbbbbbbbbbbbbbbbbbbbbbbbbbbbaaa",
"abbbbbbbbbbbbbbbbbbbbbb`bbbbbbb`bbbbbbbbbbbbbbbbbbbbbbbbbbbbbaaa",
"abbbbbbbbbbbbbbbbbbbbbb``bbbbb`bbbbbbbbbbbbbbbbbbbbbbbbbbbbbbaaa",
"abbbbbbbbbbbbbbbbbbbbbbb``````bbbbbbbbbbbbbbbbbbbbbbbbbbbbbbbaaa",
"abbbbbbbbbbbbb`bbbbbbbbbbbbbbbbbbbbbbbbbbbbbbbbbbbbbbbbbbbbbbaaa",
"abbbbbbbbbbb```bbbbbbbbbbbbbbbbbbbbbbbbbbbbbbbbbbbbbbbbbbbbbbaaa",
"abbbbbbbbbb``bbbbbbbbbbbbbbbbbbbbbbbbbbbbbbbbbbbbbbbbbbbbbbbbaaa",
"abb````bbbb`bbbbbbbbbbbbbbbbbbbbbbbbbbbbbbbbbbbbbbbbbbbbbbbbbaaa",
"ab``bb`bbbb`bbbbbbbbbbbbbbbbbbbbbbbbbbbbbb`bbbbbbbbbbbbbbbbbb`aa",
"ab`bb``bbb``bbbbbbbbbbbbbbbbbbbbbbbbbbbbbb`bbbbbbbbbbbbbbbbbb`aa",
"ab`bb`bbbb`bb```bb`b```b```bbb``bb`````bbb`bbbbb``bb```bb``bb`aa",
"abbb```````bbb`bbb``````bb`bb`b`bbb``bbb`````bb`b`bbbb```bb`````",
"abbb``bbb``bbb`bb``bb`bbbb`b`b``bbb``bbbb``bbb`b``bbbbb`bbbb``aa",
"abbb`bbbb``bb``bb``b``bbb``b```bbbb`bbbbb`bbbb```bbbbb``bbbb`aaa",
"abbb`bbbb``bb`bbb`bb``bbb`bb`bbbbb``bbbbb`bbbb`bbbbbb`b`bbbb`aaa",
"abb`bbbbb``bb`b```bb`bbb`bbb`bb``b``bbbbb````b`bb``b`bb`bbbb````",
"```bbbbb````b``b``bb````bbbb```bbb`bbbbbb``bbb```bb``bb`bbbb``aa",
"abbbbbbbbbbbbbbb``bb`bbbbbbbbbbbbbbbbbbbbbbbbbbbbbbbbbb``bbbbaaa",
"abbbbbbbbbbbbbbb`bb``bbbbbbbbbbbbbbbbbbbbbbbbbbbbbbbbbbb`bb`baaa",
"abbbbbbbbbbbbbbb`bb``bbbbbbbbbbbbbbbbbbbbbbbbbbbbbbbbbbbb```baaa",
"abbbbbbbbbbb````bbb``bbbbbbbbbbbbbbbbbbbbbbbbbbbbbbbbbbbbbbbbaaa",
"abbbbbbbbbbbbbbbbb````bbbbbbbbbbbbbbbbbbbbbbbbbbbbbbbbbbbbbbbaaa",
"abbbbbbbbbbbbbbbbbbbbbbbbbbbbbbbbbbbbbbbbbbbbbbbbbbbbbbbbbbbbaaa"
};
