/* XPM */
static char *ann-post-lno-inner[] = {
/* width height ncolors chars_per_pixel */
"61 55 3 1",
/* colors */
"` c #FF0000",
"a c #FFFFFF",
"b c #DFDF8F",
/* pixels */
"bbbbbbbbbbbbbbbbbbbbbbbbbbbbbbbbbbbbbbbbbbbbbbbbbbbbbbbbbbbba",
"bbbbbbbbbbbbbbbbbbbbbbbbbbbbbbbbbbbbbbbbbbbbbbbbbbbbbbbbbbbba",
"bbbbbbbbbbbbbbbbbbbbbbbbbbbbbbbbbbbbbbbbbbbbbbbbbbbbbbb```bba",
"bbb```````bbbbbbbbbbbbbbbb`bbbbb`````bbbb````bbb```bb``bbb``a",
"bbbbb``bb``bbbbbbbbbbbbbbb`bbbbbbb``bbbbbb````bbb`bbb``bbb``a",
"bbbbb``bb``bb```bbb````bb```bbbbbb``bbbbbb`b``bbb`bb``bbbbb``",
"bbbbb``bb``b``b``b``bb`bb``bbbbbbb``bbbbbb`b```bb`bb``bbbbb``",
"bbbbb`````b``bbb`````bbbb``bbbbbbb``bbbbbb`bb```b`bb``bbbbb``",
"bbbbb``bbbb``bbb``````bbb``bbbbbbb``bbbbbb`bbb````bb``bbbbb``",
"bbbbb``bbbb``bbb``b````bb``bbbbbbb``bbbb`b`bbbb```bb``bbbbb``",
"bbbbb``bbbb```b````bb``bb``bbbbbbb``bbb``b`bbbb```bbb``bbb``a",
"bbb`````bbbb`````b````bbb```bbbb`````````````bbb``bbb``bbb``a",
"bbbbbbbbbbbbbbbbbbbbbbbbbbbbbbbbbbbbbbbbbbbbbbbbb`bbbb`````ba",
"bbbbbbbbbbbbbbbbbbbbbbbbbbbbbbbbbbbbbbbbbbbbbbbbbbbbbbbbbbbba",
"bbbbbbbbbbbbbbbbbbbbbbbbbbbbbbbbbbbbbbbbbbbbbbbbbbbbbbbbbbbba",
"bbbbbbbbbbbbbbbbbbbbbbbbbbbbbbbbbbbbbbbbbbbbbbbbbbbbbbbbbbbba",
"bbbbbbbbbbbbbbbbbbbbbbbbbbbbbbbbbbbbbbbbbbbbbbbbbbbbbbbbbbbba",
"bbbbbbbbbbbbbbbb`````bbbbbbbbbbbbbbbbbbbbbbbbbbbbbbbbbbbbbbba",
"bbbbbbbbbbbbbbbbbb``bbbbbbbbbbbbbbbbbbbbbbbbbbbbbbbbbbbbbbbba",
"bbbbbbbbbbbbbbbbbb``b```b``bb```b``bbbb```b```b``bbbbbbbbbbba",
"bbbbbbbbbbbbbbbbbb``bb``bb``bb``bb``bb`bb`bb`````bbbbbbbbbbba",
"bbbbbbbbbbbbbbbbbb``bb``bb``bb``bb``b``bb``b``bbbbbbbbbbbbbba",
"bbbbbbbbbbbbbbbbbb``bb``bb``bb``bb``b``````b``bbbbbbbbbbbbbba",
"bbbbbbbbbbbbbbbbbb``bb``bb``bb``bb``b```bbbb``bbbbbbbbbbbbbba",
"bbbbbbbbbbbbbbbbbb``bb``bb``bb``bb``b```bb`b``bbbbbbbbbbbbbba",
"bbbbbbbbbbbbbbbb`````````````````````b````b````bbbbbbbbbbbbba",
"bbbbbbbbbbbbbbbbbbbbbbbbbbbbbbbbbbbbbbbbbbbbbbbbbbbbbbbbbbbba",
"bbbbbbbbbbbbbbbbbbbbbbbbbbbbbbbbbbbbbbbbbbbbbbbbbbbbbbbbbbbba",
"bbbbbbbbbbbbbbbbbbbbbbbbbbbbbbbbbbbbbbbbbbbbbbbbbbbbbbbbbbbba",
"bbbbbbbbbbbbbbbbbbbbbbbbbbbbbbbbbbbbbbbbbbbbbbbbbbbbbbbbbbbba",
"bbbbbbbbbbbbbbbbbbbbbbbbbbbbbbbbbbbbbbbbbbbbbbbbbbbbbbbbbbbba",
"bbbbbbbbbbbbbb`````bbbbbbbbbbbbbbbbbbbbbbbbbbbbbbbbbbbbbbbbba",
"bbbbbbbbbbbbbbbb``bbbbbbbbbbbbbbbbbbbbbbbbbbbbbbbbbbbbbbbbbba",
"bbbbbbbbbbbbbbbb``bbbbbbb```bbbb```bb``````bbb````bbbbbbbbbba",
"bbbbbbbbbbbbbbbb``bbbbbb``b``bb``b``bb```b``b``bb`bbbbbbbbbba",
"bbbbbbbbbbbbbbbb``bbbbb``bbb````bbb``b``bb``b```bbbbbbbbbbbba",
"bbbbbbbbbbbbbbbb``bbbbb``bbb````bbb``b``bb``b````bbbbbbbbbbba",
"bbbbbbbbbbbbbbbb``bbbb```bbb````bbb``b``bb``bb````bbbbbbbbbba",
"bbbbbbbbbbbbbbbb``bbb`````b``````b```b``bb``b`bb``bbbbbbbbbba",
"bbbbbbbbbbbbbb`````````b`````bb`````bb`````bb````bbbbbbbbbbba",
"bbbbbbbbbbbbbbbbbbbbbbbbbbbbbbbbbbbbbb``bbbbbbbbbbbbbbbbbbbba",
"bbbbbbbbbbbbbbbbbbbbbbbbbbbbbbbbbbbbbb``bbbbbbbbbbbbbbbbbbbba",
"bbbbbbbbbbbbbbbbbbbbbbbbbbbbbbbbbbbbb````bbbbbbbbbbbbbbbbbbba",
"bbbbbbbbbbbbbbbbbbbbbbbbbbbbbbbbbbbbbbbbbbbbbbbbbbbbbbbbbbbba",
"bbbbbbbbbbbbbbbbbbbbbbbbbbbbbbbbbbbbbbbbbbbbbbbbbbbbbbbbbbbba",
"bbbbbbbbbbbbbbbbbbbbbbbbbbbbbbbbbbbbbbbbbbbbbbbbbbbbbbbbbbbba",
"bbbbbbbbbbbbbbbbbbbbbbbbbbbbbbbbbbbbbbbbbbbbbbbbbbbbbbbbbbbba",
"bbbbbbbbbbbbbbbbbbbbbbbbbbbbbbbbbbbbbbbbbbbbbbbbbbbbbbbbbbbba",
"bbbbbbbbbbbbbbbbbbbbbbbbbbbbbbbbbbbbbbbbbbbbbbbbbbbbbbbbbbbba",
"bbbbbbbbbbbbbbbbbbbbbbbbbbbbbbbbbbbbbbbbbbbbbbbbbbbbbbbbbbbba",
"bbbbbbbbbbbbbbbbbbbbbbbbbbbbbbbbbbbbbbbbbbbbbbbbbbbbbbbbbbbba",
"bbbbbbbbbbbbbbbbbbbbbbbbbbbbbbbbbbbbbbbbbbbbbbbbbbbbbbbbbbbba",
"bbbbbbbbbbbbbbbbbbbbbbbbbbbbbbbbbbbbbbbbbbbbbbbbbbbbbbbbbbbba",
"bbbbbbbbbbbbbbbbbbbbbbbbbbbbbbbbbbbbbbbbbbbbbbbbbbbbbbbbbbbba",
"bbbbbbbbbbbbbbbbbbbbbbbbbbbbbbbbbbbbbbbbbbbbbbbbbbbbbbbbbbbba"
};
