/* XPM */
static char *ann-post-lno-prefetch[] = {
/* width height ncolors chars_per_pixel */
"60 55 2 1",
/* colors */
"` c #FF0000",
"a c #DFDF8F",
/* pixels */
"aaaaaaaaaaaaaaaaaaaaaaaaaaaaaaaaaaaaaaaaaaaaaaaaaaaaaaaaaaaa",
"aaaaaaaaaaaaaaaaaaaaaaaaaaaaaaaaaaaaaaaaaaaaaaaaaaaaaaaaaaaa",
"aaaaaaaaaaaaaaaaaaaaaaaaaaaaaaaaaaaaaaaaaaaaaaaaaaaaaaaaaaaa",
"aaaaaaaaaaaaaaaaaaaaaaaaaaaaaaaaaaaaaaaaaaaaaaaaaaaaaaaaaaaa",
"aaaaaaaaaaaaaaaaaaaaaaaaaaaaaaaaaaaaaaaaaaaaaaaaaaaaaaaaaaaa",
"aaaaaaaaaaaaaaaaaaaaaaaaaaaaaaaaaaaaaaaaaaaaaaaaaaaaaaaaaaaa",
"aaaaaaaaaaaaaaaaaaaaaaaaaaaaaaaaaaaaaaaaaaaaaaaaaaaaaaaaaaaa",
"aaaaaaaaaaaaaaaaaaaaaaaaaaaaaaaaaaaaaaaaaaaaaaaaaaaaaaaaaaaa",
"aaaaaaaaaaaaaaaaaaaaaaaaaaaaaaaaaaaaaaaaaaaaaaaaaaaaaaaaaaaa",
"aaaaaaaaaaaaaaaaaaaaaaaaaaaaaaaaaaaaaaaaaaaaaaaaaaaaaaaaaaaa",
"aaaaaaaaaaaaaaaaaaaaaaaaaaaaaaaaaaaaaaaaaaaaaaaaaaaaaaaaaaaa",
"aaaaaaaaaaaaaaaaaaaaaaaaaaaaaaaaaaaaaaaaaaaaaaaaaaaaaaaaaaaa",
"aaaaaaaaaaaaaaaaaaaaaaaaaaaaaaaaaaaaaaaaaaaaaaaaaaaaaaaaaaaa",
"aaaaaaaaaaaaaaaaaaaaaaaaaaaaaaaaaaaaaaaaaaaaaaaaaaaaaaaaaaaa",
"aaaaaaaaaaaaaaaaaaaaaaaaaaaa```aaaaaaaaaaaaaaaaaaaaaaaaaaaaa",
"aaaaa```````aaaaaaaaaaaaaaa``a``aaaaaa`aaaaaaaa```aaaaaaaaaa",
"aaaaaaa``aa``aaaaaaaaaaaaaa``a`aaaaaaa`aaaaaaaaa``aaaaaaaaaa",
"aaaaaaa``aa`````a``aa```aa`````a```aa```aaa```aa``a``aaaaaaa",
"aaaaaaa``aa``a`````a`aa`aaa``aa`aa`aa``aaa``a``a``aa``aaaaaa",
"aaaaaaa`````aa``aaa``aa``aa``a``aa``a``aa``aa``a``aa``aaaaaa",
"aaaaaaa``aaaaa``aaa``````aa``a``````a``aa``aaaaa``aa``aaaaaa",
"aaaaaaa``aaaaa``aaa```aaaaa``a```aaaa``aa``aaaaa``aa``aaaaaa",
"aaaaaaa``aaaaa``aaa```aa`aa``a```aa`a``aa```aa`a``aa``aaaaaa",
"aaaaa`````aaa````aaa````aa`````````aa```aa`````````````aaaaa",
"aaaaaaaaaaaaaaaaaaaaaaaaaaaaaaaaaaaaaaaaaaaaaaaaaaaaaaaaaaaa",
"aaaaaaaaaaaaaaaaaaaaaaaaaaaaaaaaaaaaaaaaaaaaaaaaaaaaaaaaaaaa",
"aaaaaaaaaaaaaaaaaaaaaaaaaaaaaaaaaaaaaaaaaaaaaaaaaaaaaaaaaaaa",
"aaaaaaaaaaaaaaaaaaaaaaaaaaaaaaaaaaaaaaaaaaaaaaaaaaaaaaaaaaaa",
"aaaaaaaaaaaaaaaaaaaaaaaaaaaaaaaaa```aaaaaaaaaaaaaaaaaaaaaaaa",
"aaaaaaaaaaaaaaaaa`````aaaaaaaaaa``a``aaaaaaaaaaaaaaaaaaaaaaa",
"aaaaaaaaaaaaaaaaaaa``aaaaaaaaaaa``a`aaaaaaaaaaaaaaaaaaaaaaaa",
"aaaaaaaaaaaaaaaaaaa``aa```a``aa`````a```aaaaaaaaaaaaaaaaaaaa",
"aaaaaaaaaaaaaaaaaaa``aaa``aa``aa``aa``a``aaaaaaaaaaaaaaaaaaa",
"aaaaaaaaaaaaaaaaaaa``aaa``aa``aa``a``aaa``aaaaaaaaaaaaaaaaaa",
"aaaaaaaaaaaaaaaaaaa``aaa``aa``aa``a``aaa``aaaaaaaaaaaaaaaaaa",
"aaaaaaaaaaaaaaaaaaa``aaa``aa``aa``a``aaa``aaaaaaaaaaaaaaaaaa",
"aaaaaaaaaaaaaaaaaaa``aaa``aa``aa``a```a```aaaaaaaaaaaaaaaaaa",
"aaaaaaaaaaaaaaaaa`````a``````````````````aaaaaaaaaaaaaaaaaaa",
"aaaaaaaaaaaaaaaaaaaaaaaaaaaaaaaaaaaaaaaaaaaaaaaaaaaaaaaaaaaa",
"aaaaaaaaaaaaaaaaaaaaaaaaaaaaaaaaaaaaaaaaaaaaaaaaaaaaaaaaaaaa",
"aaaaaaaaaaaaaaaaaaaaaaaaaaaaaaaaaaaaaaaaaaaaaaaaaaaaaaaaaaaa",
"aaaaaaaaaaaaaaaaaaaaaaaaaaaaaaaaaaaaaaaaaaaaaaaaaaaaaaaaaaaa",
"aaaaaaaaaaaaaaaaaaaaaaaaaaaaaaaaaaaaaaaaaaaaaaaaaaaaaaaaaaaa",
"aaaaaaaaaaaaaaaaaaaaaaaaaaaaaaaaaaaaaaaaaaaaaaaaaaaaaaaaaaaa",
"aaaaaaaaaaaaaaaaaaaaaaaaaaaaaaaaaaaaaaaaaaaaaaaaaaaaaaaaaaaa",
"aaaaaaaaaaaaaaaaaaaaaaaaaaaaaaaaaaaaaaaaaaaaaaaaaaaaaaaaaaaa",
"aaaaaaaaaaaaaaaaaaaaaaaaaaaaaaaaaaaaaaaaaaaaaaaaaaaaaaaaaaaa",
"aaaaaaaaaaaaaaaaaaaaaaaaaaaaaaaaaaaaaaaaaaaaaaaaaaaaaaaaaaaa",
"aaaaaaaaaaaaaaaaaaaaaaaaaaaaaaaaaaaaaaaaaaaaaaaaaaaaaaaaaaaa",
"aaaaaaaaaaaaaaaaaaaaaaaaaaaaaaaaaaaaaaaaaaaaaaaaaaaaaaaaaaaa",
"aaaaaaaaaaaaaaaaaaaaaaaaaaaaaaaaaaaaaaaaaaaaaaaaaaaaaaaaaaaa",
"aaaaaaaaaaaaaaaaaaaaaaaaaaaaaaaaaaaaaaaaaaaaaaaaaaaaaaaaaaaa",
"aaaaaaaaaaaaaaaaaaaaaaaaaaaaaaaaaaaaaaaaaaaaaaaaaaaaaaaaaaaa",
"aaaaaaaaaaaaaaaaaaaaaaaaaaaaaaaaaaaaaaaaaaaaaaaaaaaaaaaaaaaa",
"aaaaaaaaaaaaaaaaaaaaaaaaaaaaaaaaaaaaaaaaaaaaaaaaaaaaaaaaaaaa"
};
