/* XPM */
static char *ann-post-lno-loop[] = {
/* width height ncolors chars_per_pixel */
"60 55 2 1",
/* colors */
"` c #FF0000",
"a c #DFDF8F",
/* pixels */
"aaaaaaaaaaaaaaaaaaaaaaaaaaaaaaaaaaaaaaaaaaaaaaaaaaaaaaaaaaaa",
"aaaaaaaaaaaaaaaaaaaaaaaaaaaaaaaaaaaaaaaaaaaaaaaaaaaaaaaaaaaa",
"aaaaaaaaaaaaaaaaaaaaaaaaaaaaaaaaaaaaaaaaaaaaaaaaaaaaaaaaaaaa",
"aaaaaaaaaaaaaaaaaaaaaaaaaaaaaaaaaaaaaaaaaaaaaaaaaaaaaaaaaaaa",
"aaaaaaaaaaaaaaaaaaaaaaaaaaaaaaaaaaaaaaaaaaaaaaaaaaaaaaaaaaaa",
"aaaaaaaaaaaaaaaaaaaaaaaaaaaaaaaaaaaaaaaaaaaaaaaaaaaaaaaaaaaa",
"aaaaaaaaaaaaaaaaaaaaaaaaaaaaaaaaaaaaaaaaaaaaaaaaaaaaaaaaaaaa",
"aaaaaaaaaaaaaaaaaaaaaaaaaaaaaaaaaaaaaaaaaaaaaaaaaaaaaaaaaaaa",
"aaaaaaaaaaaaaaaaaaaaaaaaaaaaaaaaaaaaaaaaaaaaaaaaaaaaaaaaaaaa",
"aaaaaaaaaaaaaaaaaaaaaaaaaaaaaaaaaaaaaaaaaaaaaaaaaaaaaaaaaaaa",
"aaaaaaaaaaaaaaa```````aaaaaaaaaaaaaaaa`aaaaaaaaaaaaaaaaaaaaa",
"aaaaaaaaaaaaaaaaa``aa``aaaaaaaaaaaaaaa`aaaaaaaaaaaaaaaaaaaaa",
"aaaaaaaaaaaaaaaaa``aa``aaa```aaa````a```aaaaaaaaaaaaaaaaaaaa",
"aaaaaaaaaaaaaaaaa``aa``aa``a``a``aa`a``aaaaaaaaaaaaaaaaaaaaa",
"aaaaaaaaaaaaaaaaa`````aa``aaa`````aaa``aaaaaaaaaaaaaaaaaaaaa",
"aaaaaaaaaaaaaaaaa``aaaaa``aaa``````aa``aaaaaaaaaaaaaaaaaaaaa",
"aaaaaaaaaaaaaaaaa``aaaaa``aaa``a````a``aaaaaaaaaaaaaaaaaaaaa",
"aaaaaaaaaaaaaaaaa``aaaaa```a````aa``a``aaaaaaaaaaaaaaaaaaaaa",
"aaaaaaaaaaaaaaa`````aaaaa`````a````aa```aaaaaaaaaaaaaaaaaaaa",
"aaaaaaaaaaaaaaaaaaaaaaaaaaaaaaaaaaaaaaaaaaaaaaaaaaaaaaaaaaaa",
"aaaaaaaaaaaaaaaaaaaaaaaaaaaaaaaaaaaaaaaaaaaaaaaaaaaaaaaaaaaa",
"aaaaaaaaaaaaaaaaaaaaaaaaaaaaaaaaaaaaaaaaaaaaaaaaaaaaaaaaaaaa",
"aaaaaaaaaaaaaaaaaaaaaaaaaaaaaaaaaaaaaaaaaaaaaaaaaaaaaaaaaaaa",
"aaaaaaaaaaaaaaaaaaaaaaaaaaaaaaaaaaaa```aaaaaaaaaaaaaaaaaaaaa",
"aaaaaaaaaaaaa`````aaaa````aaa```aa``aaa``aaaaaaaaaaaaaaaaaaa",
"aaaaaaaaaaaaaaa``aaaaaa````aaa`aaa``aaa``aaaaaaaaaaaaaaaaaaa",
"aaaaaaaaaaaaaaa``aaaaaa`a``aaa`aa``aaaaa``aaaaaaaaaaaaaaaaaa",
"aaaaaaaaaaaaaaa``aaaaaa`a```aa`aa``aaaaa``aaaaaaaaaaaaaaaaaa",
"aaaaaaaaaaaaaaa``aaaaaa`aa```a`aa``aaaaa``aaaaaaaaaaaaaaaaaa",
"aaaaaaaaaaaaaaa``aaaaaa`aaa````aa``aaaaa``aaaaaaaaaaaaaaaaaa",
"aaaaaaaaaaaaaaa``aaaa`a`aaaa```aa``aaaaa``aaaaaaaaaaaaaaaaaa",
"aaaaaaaaaaaaaaa``aaa``a`aaaa```aaa``aaa``aaaaaaaaaaaaaaaaaaa",
"aaaaaaaaaaaaa`````````````aaa``aaa``aaa``aaaaaaaaaaaaaaaaaaa",
"aaaaaaaaaaaaaaaaaaaaaaaaaaaaaa`aaaa`````aaaaaaaaaaaaaaaaaaaa",
"aaaaaaaaaaaaaaaaaaaaaaaaaaaaaaaaaaaaaaaaaaaaaaaaaaaaaaaaaaaa",
"aaaaaaaaaaaaaaaaaaaaaaaaaaaaaaaaaaaaaaaaaaaaaaaaaaaaaaaaaaaa",
"aaaaaaaaaaaaaaaaaaaaaaaaaaaaaaaaaaaaaaaaaaaaaaaaaaaaaaaaaaaa",
"aaaaaaaaaaaaaaaaaaaaaaaaaaaaaaaaaaaaaaaaaaaaaaaaaaaaaaaaaaaa",
"aaaaaaaaaa`````aaaaaaaaaaaaaaaaaaaaaaaaaaaaaaaaaaaaaaaaaaaaa",
"aaaaaaaaaaaa``aaaaaaaaaaaaaaaaaaaaaaaaaaaaaaaaaaaaaaaaaaaaaa",
"aaaaaaaaaaaa``aaaaaaa```aaaa```aa``````aaa````aaaaaaaaaaaaaa",
"aaaaaaaaaaaa``aaaaaa``a``aa``a``aa```a``a``aa`aaaaaaaaaaaaaa",
"aaaaaaaaaaaa``aaaaa``aaa````aaa``a``aa``a```aaaaaaaaaaaaaaaa",
"aaaaaaaaaaaa``aaaaa``aaa````aaa``a``aa``a````aaaaaaaaaaaaaaa",
"aaaaaaaaaaaa``aaaa```aaa````aaa``a``aa``aa````aaaaaaaaaaaaaa",
"aaaaaaaaaaaa``aaa`````a``````a```a``aa``a`aa``aaaaaaaaaaaaaa",
"aaaaaaaaaa`````````a`````aa`````aa`````aa````aaaaaaaaaaaaaaa",
"aaaaaaaaaaaaaaaaaaaaaaaaaaaaaaaaaa``aaaaaaaaaaaaaaaaaaaaaaaa",
"aaaaaaaaaaaaaaaaaaaaaaaaaaaaaaaaaa``aaaaaaaaaaaaaaaaaaaaaaaa",
"aaaaaaaaaaaaaaaaaaaaaaaaaaaaaaaaa````aaaaaaaaaaaaaaaaaaaaaaa",
"aaaaaaaaaaaaaaaaaaaaaaaaaaaaaaaaaaaaaaaaaaaaaaaaaaaaaaaaaaaa",
"aaaaaaaaaaaaaaaaaaaaaaaaaaaaaaaaaaaaaaaaaaaaaaaaaaaaaaaaaaaa",
"aaaaaaaaaaaaaaaaaaaaaaaaaaaaaaaaaaaaaaaaaaaaaaaaaaaaaaaaaaaa",
"aaaaaaaaaaaaaaaaaaaaaaaaaaaaaaaaaaaaaaaaaaaaaaaaaaaaaaaaaaaa",
"aaaaaaaaaaaaaaaaaaaaaaaaaaaaaaaaaaaaaaaaaaaaaaaaaaaaaaaaaaaa"
};
