/* XPM */
static char *cite-options[] = {
/* width height ncolors chars_per_pixel */
"60 49 2 1",
/* colors */
"` c #000000",
"a c #70C670",
/* pixels */
"aaaaaaaaaaaaaaaaaaaaaaaaaaaaaaaaaaaaaaaaaaaaaaaaaaaaaaaaaaaa",
"aaaaaaaaaaaaaaaaaaaaaaaaaaaaaaaaaaaaaaaaaaaaaaaaaaaaaaaaaaaa",
"aaaaaaaaaaaaaaaaaaaaaaaaaaaaaaaaaaaaaaaaaaaaaaaaaaaaaaaaaaaa",
"aaaaaaaaaaaaaaaaaaaaaaaaaaaaaaaaaaaaaaaaaaaaaaaaaaaaaaaaaaaa",
"aaaaaaaaaaaaaaaaaaaaaaaaaaaaaaaaaaaaaaaaaaaaaaaaaaaaaaaaaaaa",
"aaaaaaaaaaaaaaaaaaaaaaaaaaaaaaaaaaaaaaaaaaaaaaaaaaaaaaaaaaaa",
"aaaaaaaaaaaaaaaaaaaaaaaaaaaaaaaaaaaaaaaaaaaaaaaaaaaaaaaaaaaa",
"aaaaaaaaaaaaaaaaaaaaaaaaaaaaaaaaaaaaaaaaaaaaaaaaaaaaaaaaaaaa",
"aaaaaaaaaaaaaaaaaaaaaaaaaaaaaaaaaaaaaaaaaaaaaaaaaaaaaaaaaaaa",
"aaaaaaaaaaaaaaaaaaaaaaaaaaaaaaaaa`aaaaaaaaaaaaaaaaaaaaaaaaaa",
"aaaaaaaaaaaaaaaaaaaaaaaaa`````aaa`aaaaaa`aaaaaaaaaaaaaaaaaaa",
"aaaaaaaaaaa`````aa````a```````````````````aaaaaaaaaaaaaaaaaa",
"aaaaaaaaa``aaaa`aaaa`aa`aaaaa`aa``aa`aaaaaaaaaaaaaaaaaaaaaaa",
"aaaaaaaa``aaaaaaaaa``a`aaaaa``aa`aa``aaaaaaaaaaaaaaaaaaaaaaa",
"aaaaaaaa`aaaaaaaaaa`aa`aaaaa`aaa`aa`aaaaaaaaaaaaaaaaaaaaaaaa",
"aaaaaaa``aaaaaaaaaa`aa``aaaa`aaaaaa````aaaaaaaaaaaaaaaaaaaaa",
"aaaaaaa`aaaaaaaaaa``aaaaaaa``aaaaaa`aaaaaaaaaaaaaaaaaaaaaaaa",
"aaaaaaa`aaaaaaaaaa``aaaaaaa``aaaaa``aaaaaaaaaaaaaaaaaaaaaaaa",
"aaaaaaa`aaaaaaaaaa`aaaaaaaa`aaaaaa`aaaaaa`aaaaaaaaaaaaaaaaaa",
"aaaaaaa`aaaaaaaaa``aaaaaaa`aaaaaaa`aaaaa``aaaaaaaaaaaaaaaaaa",
"aaaaaaa``aaaa`aa````aaaa`````aaa`````````aaaaaaaaaaaaaaaaaaa",
"aaaaaaaa`````aaaaaaaaaaaaaaaaaaaaaaaaaaaaaaaaaaaaaaaaaaaaaaa",
"aaaaaaaaaaaaaaaaaaaaaaaaaaaaaaaaaaaaaaaaaaaaaaaaaaaaaaaaaaaa",
"aaaaaaaaaaaaaaaaaaaaaaaaaaaaaaaaaaaaaaaaaaaaaaaaaaaaaaaaaaaa",
"aaaaaaaaaaaaaaaaaaaaaaaaaaaaaaaaaaaaaaaaaaaaaaaaaaaaaaaaaaaa",
"aaaaaaaaaaaaaaaaaaaaaaaaaaaaaaaaaaaaaaaaaaaaaaaaaaaaaaaaaaaa",
"aaaaaaaaaaaaaaaaaaaaaaaaaaaaaaaaaaaaaaaaaaaaaaaaaaaaaaaaaaaa",
"aaaaaaaaaaaaaaaaaaaaaaaaaaaaaaaaaaaaaaaaaaaaaaaaaaaaaaaaaaaa",
"aaaaaaaaaaaaaaaaaaaaaaaaaaaaaaaaa`aaaaaaaaaaaaaaaaaaaaaaaaaa",
"aaaaaaaaaa``````aaaaaaaaaaaaaaaaa`aaaaaaaaaaaaaaaaaaaaaaaaaa",
"aaaaaaaaa``aaa``aaaaaaaaaaaa`aaaaaaaaaaaaaaaaaaaaaaaaaaaaaaa",
"aaaaaaaa`aaaaaa`aaaaaaaaaaaa`aaaaaaaaaaaaaaaaaaaaaaaaaaaaaaa",
"aaaaaaa``aaaaaa`aa```a```aaa`aa```aaaa````a```a``aaaa```aaaa",
"aaaaaaa`aaaaaaa`a`````aa`a`````a``aaa`aaa`aa`````aaa`aaaaaaa",
"aaaaaaa`aaaaaaa`aaa`aaaa`aa``aaa`aaa``aaa`aa``a``aaa``aaaaaa",
"aaaaaaa`aaaaaaa`aa``aaa``aa`aaa``aaa`aaa``a``aa`aaaa``aaaaaa",
"aaaaaaa`aaaaaa`aaa``aaa`aaa`aaa`aaaa`aaa`aa``aa`aaaaa``aaaaa",
"aaaaaaa``aaaa``aaa`aaa`aaaa`````a`aa`aa``aa``aa`a``aa`aaaaaa",
"aaaaaaaa`````aaaaa````aaaaa``aa``aaa````aaa`aa```a```aaaaaaa",
"aaaaaaaaaaaaaaaaaa`aaaaaaaaaaaaaaaaaaaaaaaaaaaaaaaaaaaaaaaaa",
"aaaaaaaaaaaaaaaaa``aaaaaaaaaaaaaaaaaaaaaaaaaaaaaaaaaaaaaaaaa",
"aaaaaaaaaaaaaaaaa``aaaaaaaaaaaaaaaaaaaaaaaaaaaaaaaaaaaaaaaaa",
"aaaaaaaaaaaaaaaaa``aaaaaaaaaaaaaaaaaaaaaaaaaaaaaaaaaaaaaaaaa",
"aaaaaaaaaaaaaaaa````aaaaaaaaaaaaaaaaaaaaaaaaaaaaaaaaaaaaaaaa",
"aaaaaaaaaaaaaaaaaaaaaaaaaaaaaaaaaaaaaaaaaaaaaaaaaaaaaaaaaaaa",
"aaaaaaaaaaaaaaaaaaaaaaaaaaaaaaaaaaaaaaaaaaaaaaaaaaaaaaaaaaaa",
"aaaaaaaaaaaaaaaaaaaaaaaaaaaaaaaaaaaaaaaaaaaaaaaaaaaaaaaaaaaa",
"aaaaaaaaaaaaaaaaaaaaaaaaaaaaaaaaaaaaaaaaaaaaaaaaaaaaaaaaaaaa",
"aaaaaaaaaaaaaaaaaaaaaaaaaaaaaaaaaaaaaaaaaaaaaaaaaaaaaaaaaaaa"
};
