/* XPM */
static char *lno[] = {
/* width height num_colors chars_per_pixel */
"    56    47        5            1",
/* colors */
". c #c69591",
"# c #aaaaaa",
"a c #ff0000",
"b c #8f131b",
"c c #0000ff",
/* pixels */
"##########....................................##########",
"##########....................................##########",
"##########..........................aaaa......##########",
"##########......aaaaa...aaa...aaa.aaa..aa.....##########",
"##########.......aa......aaa...a..aa...aa.....##########",
"##########.......aa......aaaa..a.aa.....aa....##########",
"##########.......aa......a.aaa.a.aa.....aa....##########",
"##########.......aa......a..aaaa.aa.....aa....##########",
"##########.......aa......a..aaaa.aa.....aa....##########",
"##########.......aa...aa.a...aaa..aa...aa.....##########",
"##########......aaaaaaaaaaa...aa..aaa..aa.....##########",
"##########.....................a....aaaa......##########",
"##########....................................##########",
"##########....................................##########",
"##########....................................##########",
"##########....................................##########",
"########################################################",
"########################################################",
"########################################################",
"##############bbbbbbbbbbbbbbbbbbbbbbb###################",
"#############bbbbbbbbbbbbbbbbbbbbbbbbbb#################",
"############bbbbbbbbbbbbbbbbbbbbbbbbbbbb################",
"############bbbbb#################bbbbbb################",
"###########bbbbb####################bbbb################",
"###########bbbb######################bbbb###############",
"###########bbbb########cccccccccccccccccccccc###########",
"###########bbb########ccccccccccccccccccccccccc#########",
"###########bbb#######ccccccccccccccccccccccccccc########",
"###########bbb######cccccc############bbb#cccccc########",
"###########bbb######cccc#############bbbb####cccc#######",
"###########bbb#####cccc##############bbbb####cccc#######",
"###########bbbb####cccc##############bbbb#####ccc#######",
"###########bbbb####cccc##############bbbb#####ccc#######",
"############bbbb###cccc#############bbbb######ccc#######",
"############bbbbbbbcccbbbbbbbbbbbbbbbbbb######ccc#######",
"#############bbbbbbccccbbbbbbbbbbbbbbbb#######ccc#######",
"##############bbbbbccccbbbbbbbbbbbbbbb########ccc#######",
"################bbbccccbbbbbbbbbbbb##########cccc#######",
"###################cccc######################cccc#######",
"####################cccc####################ccccc#######",
"####################cccccccccccccccccccccccccccc########",
"#####################cccccccccccccccccccccccccc#########",
"######################cccccccccccccccccccccccc##########",
"########################cccccccccccccccccccc############",
"########################################################",
"########################################################",
"########################################################"
};
SIMPLE  =                    T                                                  BITPIX  =                    8                                                  NAXIS   =                    2                                                  NAXIS1  =                   56                                                  NAXIS2  =                   47                                                  HISTORY Written by XV 3.10                                                      END                                                                                                                                                                                                                                                                                                                                                                                                                                                                                                                                                                                                                                                                                                                                                                                                                                                                                                                                                                                                                                                                                                                                                                                                                                                                                                                                                                                                                                                                                                                                                                                                                                                                                                                                                                                                                                                                                                                                                                                                                                                                                                                                                                                                                                                                                                                                                                                                                                                                                             ªªªªªªªªªªªªªªªªªªªªªªªªªªªªªªªªªªªªªªªªªªªªªªªªªªªªªªªªªªªªªªªªªªªªªªªªªªªªªªªªªªªªªªªªªªªªªªªªªªªªªªªªªªªªªªªªªªªªªªªªªªªªªªªªªªªªªªªªªªªªªªªªªªªªªªªªªªªªªªªªªªªªªªªªªªªªªªªªªªªªªªªªªªªªªªªª''''''''''''''''''''ªªªªªªªªªªªªªªªªªªªªªªªªªªªªªªªªªª''''''''''''''''''''''''ªªªªªªªªªªªªªªªªªªªªªªªªªªªªªªª''''''''''''''''''''''''''ªªªªªªªªªªªªªªªªªªªªªªªªªªªªª''''''''''''''''''''''''''''ªªªªªªªªªªªªªªªªªªªªªªªªªªªª''''ªªªªªªªªªªªªªªªªªªªª'''''ªªªªªªªªªªªªªªªªªªªªªªªªªª''''ªªªªªªªªªªªªªªªªªªªªªª''''ªªªªªªªªªªªªªªªªªªªªªªª>>>''''>>>>>>>>>>>>ªªªªªªªªªª''''ªªªªªªªªªªªªªªªªªªªªª>>>>>''''>>>>>>>>>>>>>>>ªªªªªªªª'''ªªªªªªªªªªªªªªªªªªªª>>>>>>''''>>>>>>>>>>>>>>>>ªªªªªªª'''ªªªªªªªªªªªªªªªªªªª>>>>>>>'''>>>>>>>>>>>>>>>>>>ªªªªªª'''ªªªªªªªªªªªªªªªªªªª>>>>ªªª''''ªªªªªªªªªªªªª>>>>ªªªªªª'''ªªªªªªªªªªªªªªªªªª>>>>ªªªª''''ªªªªªªªªªªªªªª>>>>ªªªªª'''ªªªªªªªªªªªªªªªªªª>>>>ªªªª''''ªªªªªªªªªªªªªª>>>>ªªªªª'''ªªªªªªªªªªªªªªªªªª>>>ªªªªª''''ªªªªªªªªªªªªªª>>>>ªªªª''''ªªªªªªªªªªªªªªªªªª>>>ªªªªªª''''ªªªªªªªªªªªªª>>>>ªªªª''''ªªªªªªªªªªªªªªªªªª>>>ªªªªªª''''''ªªªªªªªªªªªª>>>ª''''''ªªªªªªªªªªªªªªªªªªª>>>ªªªªªªª'''''''''''''''''''''''''''ªªªªªªªªªªªªªªªªªªª>>>ªªªªªªªª'''''''''''''''''''''''''ªªªªªªªªªªªªªªªªªªªª>>>>ªªªªªªªª''''''''''''''''''''''ªªªªªªªªªªªªªªªªªªªªªª>>>>ªªªªªªªªªªªªªªªªªªªªªª>>>>ªªªªªªªªªªªªªªªªªªªªªªªªªª>>>>>ªªªªªªªªªªªªªªªªªªªª>>>>ªªªªªªªªªªªªªªªªªªªªªªªªªªªª>>>>>ªªªªªªªªªªªªªªªªª>>>>>>ªªªªªªªªªªªªªªªªªªªªªªªªªªªª>>>>>>>>>>>>>>>>>>>>>>>>>>>>ªªªªªªªªªªªªªªªªªªªªªªªªªªªªª>>>>>>>>>>>>>>>>>>>>>>>>>>ªªªªªªªªªªªªªªªªªªªªªªªªªªªªªªª>>>>>>>>>>>>>>>>>>>>>>>ªªªªªªªªªªªªªªªªªªªªªªªªªªªªªªªªªªªªªªªªªªªªªªªªªªªªªªªªªªªªªªªªªªªªªªªªªªªªªªªªªªªªªªªªªªªªªªªªªªªªªªªªªªªªªªªªªªªªªªªªªªªªªªªªªªªªªªªªªªªªªªªªªªªªªªªªªªªªªªªªªªªªªªªªªªªªªªªªªªªªªªªªªªªªªªªªªªªªª¥¥¥¥¥¥¥¥¥¥¥¥¥¥¥¥¥¥¥¥¥¥¥¥¥¥¥¥¥¥¥¥¥¥¥¥ªªªªªªªªªªªªªªªªªªªª¥¥¥¥¥¥¥¥¥¥¥¥¥¥¥¥¥¥¥¥¥¥¥¥¥¥¥¥¥¥¥¥¥¥¥¥ªªªªªªªªªªªªªªªªªªªª¥¥¥¥¥¥¥¥¥¥¥¥¥¥¥¥¥¥¥¥¥¥¥¥¥¥¥¥¥¥¥¥¥¥¥¥ªªªªªªªªªªªªªªªªªªªª¥¥¥¥¥¥¥¥¥¥¥¥¥¥¥¥¥¥¥¥¥¥¥¥¥¥¥¥¥¥¥¥¥¥¥¥ªªªªªªªªªªªªªªªªªªªª¥¥¥¥¥¥¥¥¥¥¥¥¥¥¥¥¥¥¥¥¥W¥¥¥¥WWWW¥¥¥¥¥¥ªªªªªªªªªªªªªªªªªªªª¥¥¥¥¥¥WWWWWWWWWWW¥¥¥WW¥¥WWW¥¥WW¥¥¥¥¥ªªªªªªªªªªªªªªªªªªªª¥¥¥¥¥¥¥WW¥¥¥WW¥W¥¥¥WWW¥¥WW¥¥¥WW¥¥¥¥¥ªªªªªªªªªªªªªªªªªªªª¥¥¥¥¥¥¥WW¥¥¥¥¥¥W¥¥WWWW¥WW¥¥¥¥¥WW¥¥¥¥ªªªªªªªªªªªªªªªªªªªª¥¥¥¥¥¥¥WW¥¥¥¥¥¥W¥¥WWWW¥WW¥¥¥¥¥WW¥¥¥¥ªªªªªªªªªªªªªªªªªªªª¥¥¥¥¥¥¥WW¥¥¥¥¥¥W¥WWW¥W¥WW¥¥¥¥¥WW¥¥¥¥ªªªªªªªªªªªªªªªªªªªª¥¥¥¥¥¥¥WW¥¥¥¥¥¥WWWW¥¥W¥WW¥¥¥¥¥WW¥¥¥¥ªªªªªªªªªªªªªªªªªªªª¥¥¥¥¥¥¥WW¥¥¥¥¥¥WWW¥¥¥W¥¥WW¥¥¥WW¥¥¥¥¥ªªªªªªªªªªªªªªªªªªªª¥¥¥¥¥¥WWWWW¥¥¥WWW¥¥¥WWW¥WWW¥¥WW¥¥¥¥¥ªªªªªªªªªªªªªªªªªªªª¥¥¥¥¥¥¥¥¥¥¥¥¥¥¥¥¥¥¥¥¥¥¥¥¥¥WWWW¥¥¥¥¥¥ªªªªªªªªªªªªªªªªªªªª¥¥¥¥¥¥¥¥¥¥¥¥¥¥¥¥¥¥¥¥¥¥¥¥¥¥¥¥¥¥¥¥¥¥¥¥ªªªªªªªªªªªªªªªªªªªª¥¥¥¥¥¥¥¥¥¥¥¥¥¥¥¥¥¥¥¥¥¥¥¥¥¥¥¥¥¥¥¥¥¥¥¥ªªªªªªªªªª                                                                                                                                                                                                                                                        