/* XPM */
static char *mongoose-face[] = {
/* width height num_colors chars_per_pixel */
"   100    57        3            1",
/* colors */
". c #000000",
"# c #b55031",
"a c #bfbfbf",
/* pixels */
"aaaaaaaaaaaaaaaaaaaaaaaaaaaaaaaaaaaaaaaaaaaaaaaa............aaaaaaaaaaaaaaaaaaaaaaaaaaaaaaaaaaaaaaaa",
"aaaaaaaaaaaaaaaaaaaaaaaaaaaaaaaaaaaaaaa......######################......aaaaaaaaaaaaaaaaaaaaaaaaaaa",
"aaaaaaaaaaaaaaaaaaaaaaaaaaaaaaaaaaaaaaa......######################......aaaaaaaaaaaaaaaaaaaaaaaaaaa",
"aaaaaaaaaaaaaaaaaaaaaaaaaaaaaaaaa.........############################......aaaaaaaaaaaaaaaaaaaaaaaa",
"aaaaaaaaaaaaaaaaaaaaaaaaaaaaaa......###############......###################...aaaaaaaaaaaaaaaaaaaaa",
"aaaaaaaaaaaaaaaaaaaaaaaaaaaaaa......###############......###################...aaaaaaaaaaaaaaaaaaaaa",
"aaaaaaaaaaaaaaaaaaaa.............#########............................######...............aaaaaaaaa",
"aaaaaaaaaaaaaaaaa.......aaa......######........................................aaaaaa......aaaaaaaaa",
"aaaaaaaaaaaaaaaaa.......aaa......######........................................aaaaaa......aaaaaaaaa",
"aaaaaaaaaaaaaaaaa.............#########..................................######............aaaaaaaaa",
"aaaaaaaaaaaaaaaaa..........############..................................#########.........aaaaaaaaa",
"aaaaaaaaaaaaaaaaa..........############..................................#########.........aaaaaaaaa",
"aaaaaaaaaaaaaaaaa..........############..................................############......aaaaaaaaa",
"aaaaaaaaaaaaaaaaa..........############..................................############......aaaaaaaaa",
"aaaaaaaaaaaaaaaaa.......######...######...............................##################...aaaaaaaaa",
"aaaaaaaaaaaaaaaaa...##########...#########............................#########......###...aaaaaaaaa",
"aaaaaaaaaaaaaaaaa...##########...#########............................#########......###...aaaaaaaaa",
"aaaaaaaaaaaaaa......##########......######.........................############...#########...aaaaaa",
"aaaaaaaaaaa......################...#########......................############...#########......aaa",
"aaaaaaaaaaa......################...#########......................############...#########......aaa",
"aaaaaaaaaaa......###################...###############...################...##################...aaa",
"aaaaaaaaaaa......################......###############################......##################...aaa",
"aaaaaaaaaaa......################......###############################......##################...aaa",
"aaaaaaaa############################...####################################################......aaa",
"aaaaaaaa############################...####################################################......aaa",
"aaaaa############################.........############################.........############...aaaaaa",
"aaaaa######################################################################################...aaaaaa",
"aaaaa######################################################################################...aaaaaa",
"aaaaa###################################################################################...aaaaaaaaa",
"aaaaa########################################...################...#####################...aaaaaaaaa",
"aaaaa########################################...################...#####################...aaaaaaaaa",
"aaaaa############...##########...############...################...############.........aaaaaaaaaaaa",
"aaaaa############...##########...############...################......######.........aaaaaaaaaaaaaaa",
"aaaaa############...##########...############...################......######.........aaaaaaaaaaaaaaa",
"aaaaa############...####............######.........aaaaaaaaa..........###.........aaaaaaaaaaaaaaaaaa",
"aaaaa...################......###...######...#########aaa###....######...###...aaaaaaaaaaaaaaaaaaaaa",
"aaaaa...################......###...######...#########aaa###....######...###...aaaaaaaaaaaaaaaaaaaaa",
"aaaaa...###################..................######............................aaaaaaaaaaaaaaaaaaaaa",
"aaaaa...###################..................######............................aaaaaaaaaaaaaaaaaaaaa",
"aaaaa......#########....###............######...............................aaaaaaaaaaaaaaaaaaaaaaaa",
"aaaaa...############....###...###.........#########.........................aaaaaaaaaaaaaaaaaaaaaaaa",
"aaaaa...############....###...###.........#########.........................aaaaaaaaaaaaaaaaaaaaaaaa",
"aaaaa######...######..........######............############................aaaaaaaaaaaaaaaaaaaaaaaa",
"aaaaa###############..........######........................................aaaaaaaaaaaaaaaaaaaaaaaa",
"aaaaa###############..........######........................................aaaaaaaaaaaaaaaaaaaaaaaa",
"aaaaa##################################...............................###...aaaaaaaaaaaaaaaaaaaaaaaa",
"aaaaa###############.......###############............................###...aaaaaaaaaaaaaaaaaaaaaaaa",
"aaaaa###############.......###############............................###...aaaaaaaaaaaaaaaaaaaaaaaa",
"aaaaa###############.......#####################...................######...aaaaaaaaaaaaaaaaaaaaaaaa",
"aaaaa###############.......#####################...................######...aaaaaaaaaaaaaaaaaaaaaaaa",
"aaaaa###############.......########################.........#############......aaaaaaaaaaaaaaaaaaaaa",
"aaaaa############.......##############################...#######...#########...aaaaaaaaaaaaaaaaaaaaa",
"aaaaa############.......##############################...#######...#########...aaaaaaaaaaaaaaaaaaaaa",
"aa...#########...###....########################################...###...###...aaaaaaaaaaaaaaaaaaaaa",
"aa...#########...#####################################################...###...aaaaaaaaaaaaaaaaaaaaa",
"aa...#########...#####################################################...###...aaaaaaaaaaaaaaaaaaaaa",
"aa##########################################################################...aaaaaaaaaaaaaaaaaaaaa"
};
SIMPLE  =                    T                                                  BITPIX  =                    8                                                  NAXIS   =                    2                                                  NAXIS1  =                  100                                                  NAXIS2  =                   57                                                  HISTORY Written by XV 3.10                                                      END                                                                                                                                                                                                                                                                                                                                                                                                                                                                                                                                                                                                                                                                                                                                                                                                                                                                                                                                                                                                                                                                                                                                                                                                                                                                                                                                                                                                                                                                                                                                                                                                                                                                                                                                                                                                                                                                                                                                                                                                                                                                                                                                                                                                                                                                                                                                                                                                                                                                                             ¿¿mmmmmmmmmmmmmmmmmmmmmmmmmmmmmmmmmmmmmmmmmmmmmmmmmmmmmmmmmmmmmmmmmmmmmmmmmm   ¿¿¿¿¿¿¿¿¿¿¿¿¿¿¿¿¿¿¿¿¿¿¿   mmmmmmmmm   mmmmmmmmmmmmmmmmmmmmmmmmmmmmmmmmmmmmmmmmmmmmmmmmmmmmm   mmm   ¿¿¿¿¿¿¿¿¿¿¿¿¿¿¿¿¿¿¿¿¿¿¿   mmmmmmmmm   mmmmmmmmmmmmmmmmmmmmmmmmmmmmmmmmmmmmmmmmmmmmmmmmmmmmm   mmm   ¿¿¿¿¿¿¿¿¿¿¿¿¿¿¿¿¿¿¿¿¿¿¿   mmmmmmmmm   mmm    mmmmmmmmmmmmmmmmmmmmmmmmmmmmmmmmmmmmmmmm   mmm   mmm   ¿¿¿¿¿¿¿¿¿¿¿¿¿¿¿¿¿¿¿¿¿¿¿¿¿¿mmmmmmmmmmmm       mmmmmmmmmmmmmmmmmmmmmmmmmmmmmm   mmmmmmm   mmmmmmmmm   ¿¿¿¿¿¿¿¿¿¿¿¿¿¿¿¿¿¿¿¿¿¿¿¿¿¿mmmmmmmmmmmm       mmmmmmmmmmmmmmmmmmmmmmmmmmmmmm   mmmmmmm   mmmmmmmmm   ¿¿¿¿¿¿¿¿¿¿¿¿¿¿¿¿¿¿¿¿¿¿¿¿¿¿mmmmmmmmmmmmmmm       mmmmmmmmmmmmmmmmmmmmmmmm         mmmmmmmmmmmmm      ¿¿¿¿¿¿¿¿¿¿¿¿¿¿¿¿¿¿¿¿¿¿¿¿¿¿mmmmmmmmmmmmmmm       mmmmmmmmmmmmmmmmmmmmm                   mmmmmm   ¿¿¿¿¿¿¿¿¿¿¿¿¿¿¿¿¿¿¿¿¿¿¿¿¿¿¿¿¿mmmmmmmmmmmmmmm       mmmmmmmmmmmmmmmmmmmmm                   mmmmmm   ¿¿¿¿¿¿¿¿¿¿¿¿¿¿¿¿¿¿¿¿¿¿¿¿¿¿¿¿¿mmmmmmmmmmmmmmm       mmmmmmmmmmmmmmm                            mmm   ¿¿¿¿¿¿¿¿¿¿¿¿¿¿¿¿¿¿¿¿¿¿¿¿¿¿¿¿¿mmmmmmmmmmmmmmm       mmmmmmmmmmmmmmm                            mmm   ¿¿¿¿¿¿¿¿¿¿¿¿¿¿¿¿¿¿¿¿¿¿¿¿¿¿¿¿¿mmmmmmmmmmmmmmmmmmmmmmmmmmmmmmmmmm                               mmm   ¿¿¿¿¿¿¿¿¿¿¿¿¿¿¿¿¿¿¿¿¿¿¿¿¿¿¿¿¿mmmmmmmmmmmmmmm          mmmmmm                                        ¿¿¿¿¿¿¿¿¿¿¿¿¿¿¿¿¿¿¿¿¿¿¿¿¿¿¿¿¿mmmmmmmmmmmmmmm          mmmmmm                                        ¿¿¿¿¿¿¿¿¿¿¿¿¿¿¿¿¿¿¿¿¿¿¿¿¿¿¿¿¿mmmmmm   mmmmmm          mmmmmm            mmmmmmmmmmmm                ¿¿¿¿¿¿¿¿¿¿¿¿¿¿¿¿¿¿¿¿¿¿¿¿¿¿¿¿¿   mmmmmmmmmmmm    mmm   mmm         mmmmmmmmm                         ¿¿¿¿¿¿¿¿¿¿¿¿¿¿¿¿¿¿¿¿¿¿¿¿¿¿¿¿¿   mmmmmmmmmmmm    mmm   mmm         mmmmmmmmm                         ¿¿¿¿¿¿¿¿¿¿¿¿¿¿¿¿¿¿¿¿¿¿¿¿¿¿¿¿¿      mmmmmmmmm    mmm            mmmmmm                               ¿¿¿¿¿¿¿¿¿¿¿¿¿¿¿¿¿¿¿¿¿¿¿¿¿¿¿¿¿   mmmmmmmmmmmmmmmmmmm                  mmmmmm                            ¿¿¿¿¿¿¿¿¿¿¿¿¿¿¿¿¿¿¿¿¿¿¿¿¿¿   mmmmmmmmmmmmmmmmmmm                  mmmmmm                            ¿¿¿¿¿¿¿¿¿¿¿¿¿¿¿¿¿¿¿¿¿¿¿¿¿¿   mmmmmmmmmmmmmmmm      mmm   mmmmmm   mmmmmmmmm¿¿¿mmm    mmmmmm   mmm   ¿¿¿¿¿¿¿¿¿¿¿¿¿¿¿¿¿¿¿¿¿¿¿¿¿¿   mmmmmmmmmmmmmmmm      mmm   mmmmmm   mmmmmmmmm¿¿¿mmm    mmmmmm   mmm   ¿¿¿¿¿¿¿¿¿¿¿¿¿¿¿¿¿¿¿¿¿¿¿¿¿¿mmmmmmmmmmmm   mmmm            mmmmmm         ¿¿¿¿¿¿¿¿¿          mmm         ¿¿¿¿¿¿¿¿¿¿¿¿¿¿¿¿¿¿¿¿¿¿¿mmmmmmmmmmmm   mmmmmmmmmm   mmmmmmmmmmmm   mmmmmmmmmmmmmmmm      mmmmmm         ¿¿¿¿¿¿¿¿¿¿¿¿¿¿¿¿¿¿¿¿mmmmmmmmmmmm   mmmmmmmmmm   mmmmmmmmmmmm   mmmmmmmmmmmmmmmm      mmmmmm         ¿¿¿¿¿¿¿¿¿¿¿¿¿¿¿¿¿¿¿¿mmmmmmmmmmmm   mmmmmmmmmm   mmmmmmmmmmmm   mmmmmmmmmmmmmmmm   mmmmmmmmmmmm         ¿¿¿¿¿¿¿¿¿¿¿¿¿¿¿¿¿mmmmmmmmmmmmmmmmmmmmmmmmmmmmmmmmmmmmmmmm   mmmmmmmmmmmmmmmm   mmmmmmmmmmmmmmmmmmmmm   ¿¿¿¿¿¿¿¿¿¿¿¿¿¿mmmmmmmmmmmmmmmmmmmmmmmmmmmmmmmmmmmmmmmm   mmmmmmmmmmmmmmmm   mmmmmmmmmmmmmmmmmmmmm   ¿¿¿¿¿¿¿¿¿¿¿¿¿¿mmmmmmmmmmmmmmmmmmmmmmmmmmmmmmmmmmmmmmmmmmmmmmmmmmmmmmmmmmmmmmmmmmmmmmmmmmmmmmmmmmm   ¿¿¿¿¿¿¿¿¿¿¿¿¿¿mmmmmmmmmmmmmmmmmmmmmmmmmmmmmmmmmmmmmmmmmmmmmmmmmmmmmmmmmmmmmmmmmmmmmmmmmmmmmmmmmmmmmm   ¿¿¿¿¿¿¿¿¿¿¿mmmmmmmmmmmmmmmmmmmmmmmmmmmmmmmmmmmmmmmmmmmmmmmmmmmmmmmmmmmmmmmmmmmmmmmmmmmmmmmmmmmmmm   ¿¿¿¿¿¿¿¿¿¿¿mmmmmmmmmmmmmmmmmmmmmmmmmmmm         mmmmmmmmmmmmmmmmmmmmmmmmmmmm         mmmmmmmmmmmm   ¿¿¿¿¿¿¿¿¿¿¿¿¿¿mmmmmmmmmmmmmmmmmmmmmmmmmmmm   mmmmmmmmmmmmmmmmmmmmmmmmmmmmmmmmmmmmmmmmmmmmmmmmmmmm      ¿¿¿¿¿¿¿¿¿¿¿mmmmmmmmmmmmmmmmmmmmmmmmmmmm   mmmmmmmmmmmmmmmmmmmmmmmmmmmmmmmmmmmmmmmmmmmmmmmmmmmm      ¿¿¿¿¿¿¿¿¿¿¿¿¿¿      mmmmmmmmmmmmmmmm      mmmmmmmmmmmmmmmmmmmmmmmmmmmmmmm      mmmmmmmmmmmmmmmmmm   ¿¿¿¿¿¿¿¿¿¿¿¿¿¿      mmmmmmmmmmmmmmmm      mmmmmmmmmmmmmmmmmmmmmmmmmmmmmmm      mmmmmmmmmmmmmmmmmm   ¿¿¿¿¿¿¿¿¿¿¿¿¿¿      mmmmmmmmmmmmmmmmmmm   mmmmmmmmmmmmmmm   mmmmmmmmmmmmmmmm   mmmmmmmmmmmmmmmmmm   ¿¿¿¿¿¿¿¿¿¿¿¿¿¿      mmmmmmmmmmmmmmmm   mmmmmmmmm                      mmmmmmmmmmmm   mmmmmmmmm      ¿¿¿¿¿¿¿¿¿¿¿¿¿¿      mmmmmmmmmmmmmmmm   mmmmmmmmm                      mmmmmmmmmmmm   mmmmmmmmm      ¿¿¿¿¿¿¿¿¿¿¿¿¿¿¿¿¿      mmmmmmmmmm      mmmmmm                         mmmmmmmmmmmm   mmmmmmmmm   ¿¿¿¿¿¿¿¿¿¿¿¿¿¿¿¿¿¿¿¿¿¿¿   mmmmmmmmmm   mmmmmmmmm                            mmmmmmmmm      mmm   ¿¿¿¿¿¿¿¿¿¿¿¿¿¿¿¿¿¿¿¿¿¿¿¿¿¿   mmmmmmmmmm   mmmmmmmmm                            mmmmmmmmm      mmm   ¿¿¿¿¿¿¿¿¿¿¿¿¿¿¿¿¿¿¿¿¿¿¿¿¿¿       mmmmmm   mmmmmm                               mmmmmmmmmmmmmmmmmm   ¿¿¿¿¿¿¿¿¿¿¿¿¿¿¿¿¿¿¿¿¿¿¿¿¿¿          mmmmmmmmmmmm                                  mmmmmmmmmmmm      ¿¿¿¿¿¿¿¿¿¿¿¿¿¿¿¿¿¿¿¿¿¿¿¿¿¿          mmmmmmmmmmmm                                  mmmmmmmmmmmm      ¿¿¿¿¿¿¿¿¿¿¿¿¿¿¿¿¿¿¿¿¿¿¿¿¿¿          mmmmmmmmmmmm                                  mmmmmmmmm         ¿¿¿¿¿¿¿¿¿¿¿¿¿¿¿¿¿¿¿¿¿¿¿¿¿¿          mmmmmmmmmmmm                                  mmmmmmmmm         ¿¿¿¿¿¿¿¿¿¿¿¿¿¿¿¿¿¿¿¿¿¿¿¿¿¿             mmmmmmmmm                                  mmmmmm            ¿¿¿¿¿¿¿¿¿¿¿¿¿¿¿¿¿¿¿¿¿¿¿¿¿¿       ¿¿¿      mmmmmm                                        ¿¿¿¿¿¿      ¿¿¿¿¿¿¿¿¿¿¿¿¿¿¿¿¿¿¿¿¿¿¿¿¿¿       ¿¿¿      mmmmmm                                        ¿¿¿¿¿¿      ¿¿¿¿¿¿¿¿¿¿¿¿¿¿¿¿¿¿¿¿¿¿¿¿¿¿¿¿¿             mmmmmmmmm                            mmmmmm               ¿¿¿¿¿¿¿¿¿¿¿¿¿¿¿¿¿¿¿¿¿¿¿¿¿¿¿¿¿¿¿¿¿¿¿¿¿¿¿      mmmmmmmmmmmmmmm      mmmmmmmmmmmmmmmmmmm   ¿¿¿¿¿¿¿¿¿¿¿¿¿¿¿¿¿¿¿¿¿¿¿¿¿¿¿¿¿¿¿¿¿¿¿¿¿¿¿¿¿¿¿¿¿¿¿¿¿¿¿      mmmmmmmmmmmmmmm      mmmmmmmmmmmmmmmmmmm   ¿¿¿¿¿¿¿¿¿¿¿¿¿¿¿¿¿¿¿¿¿¿¿¿¿¿¿¿¿¿¿¿¿¿¿¿¿¿¿¿¿¿¿¿¿¿¿¿¿¿¿¿¿¿         mmmmmmmmmmmmmmmmmmmmmmmmmmmm      ¿¿¿¿¿¿¿¿¿¿¿¿¿¿¿¿¿¿¿¿¿¿¿¿¿¿¿¿¿¿¿¿¿¿¿¿¿¿¿¿¿¿¿¿¿¿¿¿¿¿¿¿¿¿¿¿¿¿¿¿¿¿¿      mmmmmmmmmmmmmmmmmmmmmm      ¿¿¿¿¿¿¿¿¿¿¿¿¿¿¿¿¿¿¿¿¿¿¿¿¿¿¿¿¿¿¿¿¿¿¿¿¿¿¿¿¿¿¿¿¿¿¿¿¿¿¿¿¿¿¿¿¿¿¿¿¿¿¿¿¿¿      mmmmmmmmmmmmmmmmmmmmmm      ¿¿¿¿¿¿¿¿¿¿¿¿¿¿¿¿¿¿¿¿¿¿¿¿¿¿¿¿¿¿¿¿¿¿¿¿¿¿¿¿¿¿¿¿¿¿¿¿¿¿¿¿¿¿¿¿¿¿¿¿¿¿¿¿¿¿¿¿¿¿¿¿¿¿¿            ¿¿¿¿¿¿¿¿¿¿¿¿¿¿¿¿¿¿¿¿¿¿¿¿¿¿¿¿¿¿¿¿¿¿¿¿¿¿¿¿                                                            