/* XPM */
static char *src-lno[] = {
/* width height ncolors chars_per_pixel */
"65 48 2 1",
/* colors */
"` c #000000",
"a c #3F8F3F",
/* pixels */
"aaaaaaaaaaaaaaaaaaaaaaaaaaaaaaaaaaaaaaaaaaaaaaaaaaaaaaaaaaaaaaaaa",
"aaaaaaaaaaaaaaaaaaaaaaaaaaaaaaaaaaaaaaaaaaaaaaaaaaaaaaaaaaaaaaaaa",
"aaaaaaaaaaaaaaaaaaaaaaaaaaaaaaaaaaaaaaaaaaaaaaaaaaaaaaaaaaaaaaaaa",
"aaaaaaaaaaaaaaaaaaaaaaaaaaaaaaaaaaaaaaaaaaaaaaaaaaaaaaaaaaaaaaaaa",
"aaaaaaaaaaaaaaaaaaaaaaaaaaaaaaaaaaaaaaaaaaaaaaaaaaaaaaaaaaaaaaaaa",
"aaaaaaaaaaaaaa`````aaaaaaaaaaaaaaaaaaaaaaaaaaaaaaaaaaaaaaaaaaaaaa",
"aaaaaaaaaaaaa`aaa``aaaaaaaaaaaaaaaaaaaaaaaaaaaaaaaaaaaaaaaaaaaaaa",
"aaaaaaaaaaaa``aaaa`aaaaaaaaaaaaaaaaaaaaaaaaaaaaaaaaaaaaaaaaaaaaaa",
"aaaaaaaaaaaa```aaaaaaa```aa```a``````a``aaa```aaa```aaaaaaaaaaaaa",
"aaaaaaaaaaaaa````aaaa``a``aa``aa``a`````aa``a``a`aa`aaaaaaaaaaaaa",
"aaaaaaaaaaaaaa`````a``aaa``a``aa``a``aaaa``aa````aa``aaaaaaaaaaaa",
"aaaaaaaaaaaaaaaa```a``aaa``a``aa``a``aaaa``aaaa``````aaaaaaaaaaaa",
"aaaaaaaaaaaa`aaaa``a``aaa``a``aa``a``aaaa``aaaa```aaaaaaaaaaaaaaa",
"aaaaaaaaaaaa``aaa``a```a```a``aa``a``aaaa```aa````aa`aaaaaaaaaaaa",
"aaaaaaaaaaaa```aa`aaa`````aa``````````aaaa`````a````aaaaaaaaaaaaa",
"aaaaaaaaaaaa`a````aaaaaaaaaaaaaaaaaaaaaaaaaaaaaaaaaaaaaaaaaaaaaaa",
"aaaaaaaaaaaaaaaaaaaaaaaaaaaaaaaaaaaaaaaaaaaaaaaaaaaaaaaaaaaaaaaaa",
"aaaaaaaaaaaaaaaaaaaaaaaaaaaaaaaaaaaaaaaaaaaaaaaaaaaaaaaaaaaaaaaaa",
"aaaaaaaaaaaaaaaaaaaaaaaaaaaaaaaaaaaaaaaaaaaaaaaaaaaaaaaaaaaaaaaaa",
"aaaaaaaaaaaaaaaaaaaaaaaaaaa```aaaaaaaaaaaaaaaaaaaaaaaaaaaaaaaaaaa",
"aaaaaaaaaaaaaaaaaaaaaaaaaa``a``a`aaaaaaaaaaaaaaaaaaaaaaaaaaaaaaaa",
"aaaaaaaaaaaaaaaaaaaaaaaaaa``a`aa`aaaaaaaaaaaaaaaaaaaaaaaaaaaaaaaa",
"aaaaaaaaaaaaaaaaaaaa```aa`````a```aa```aa```a``aaaaaaaaaaaaaaaaaa",
"aaaaaaaaaaaaaaaaaaa``a``aa``aaa``aa`aa`aaa`````aaaaaaaaaaaaaaaaaa",
"aaaaaaaaaaaaaaaaaaa``a``aa``aaa``a``aa``aa``aaaaaaaaaaaaaaaaaaaaa",
"aaaaaaaaaaaaaaaaaaaa````aa``aaa``a``````aa``aaaaaaaaaaaaaaaaaaaaa",
"aaaaaaaaaaaaaaaaaaa``a``aa``aaa``a```aaaaa``aaaaaaaaaaaaaaaaaaaaa",
"aaaaaaaaaaaaaaaaaa``aa``aa``aaa``a```aa`aa``aaaaaaaaaaaaaaaaaaaaa",
"aaaaaaaaaaaaaaaaaa````````````a```a````aa````aaaaaaaaaaaaaaaaaaaa",
"aaaaaaaaaaaaaaaaaaaaaaaaaaaaaaaaaaaaaaaaaaaaaaaaaaaaaaaaaaaaaaaaa",
"aaaaaaaaaaaaaaaaaaaaaaaaaaaaaaaaaaaaaaaaaaaaaaaaaaaaaaaaaaaaaaaaa",
"aaaaaaaaaaaaaaaaaaaaaaaaaaaaaaaaaaaaaaaaaaaaaaaaaaaaaaaaaaaaaaaaa",
"aaaaaaaaaaaaaaaaaaaaaaaaaaaaaaaaaaaaaaaaaaaaaaaaaaaaaaaaaaaaaaaaa",
"aaaaaaaaaaaaaaaaaaaaaaaaaaaaaaaaaaaaaaaaa```aaaaaaaaaaaaaaaaaaaaa",
"aaaaaaaaaaaaaaaaa`````aaaaa````aaa```aa``aaa``aaaaaaaaaaaaaaaaaaa",
"aaaaaaaaaaaaaaaaaaa``aaaaaaa````aaa`aaa``aaa``aaaaaaaaaaaaaaaaaaa",
"aaaaaaaaaaaaaaaaaaa``aaaaaaa`a``aaa`aa``aaaaa``aaaaaaaaaaaaaaaaaa",
"aaaaaaaaaaaaaaaaaaa``aaaaaaa`a```aa`aa``aaaaa``aaaaaaaaaaaaaaaaaa",
"aaaaaaaaaaaaaaaaaaa``aaaaaaa`aa```a`aa``aaaaa``aaaaaaaaaaaaaaaaaa",
"aaaaaaaaaaaaaaaaaaa``aaaaaaa`aaa````aa``aaaaa``aaaaaaaaaaaaaaaaaa",
"aaaaaaaaaaaaaaaaaaa``aaaa`aa`aaaa```aa``aaaaa``aaaaaaaaaaaaaaaaaa",
"aaaaaaaaaaaaaaaaaaa``aaa``aa`aaaa```aaa``aaa``aaaaaaaaaaaaaaaaaaa",
"aaaaaaaaaaaaaaaaa`````````a````aaa``aaa``aaa``aaaaaaaaaaaaaaaaaaa",
"aaaaaaaaaaaaaaaaaaaaaaaaaaaaaaaaaaa`aaaa`````aaaaaaaaaaaaaaaaaaaa",
"aaaaaaaaaaaaaaaaaaaaaaaaaaaaaaaaaaaaaaaaaaaaaaaaaaaaaaaaaaaaaaaaa",
"aaaaaaaaaaaaaaaaaaaaaaaaaaaaaaaaaaaaaaaaaaaaaaaaaaaaaaaaaaaaaaaaa",
"aaaaaaaaaaaaaaaaaaaaaaaaaaaaaaaaaaaaaaaaaaaaaaaaaaaaaaaaaaaaaaaaa",
"aaaaaaaaaaaaaaaaaaaaaaaaaaaaaaaaaaaaaaaaaaaaaaaaaaaaaaaaaaaaaaaaa"
};
